<svg width="52" height="52" viewBox="0 0 52 52" fill="none" xmlns="http://www.w3.org/2000/svg">
<path d="M26 15.1667V45.5001" stroke="#CF3034" stroke-width="2.4375" stroke-linecap="round" stroke-linejoin="round"/>
<path d="M6.50004 39C5.9254 39 5.3743 38.7717 4.96798 38.3654C4.56165 37.9591 4.33337 37.408 4.33337 36.8333V8.66667C4.33337 8.09203 4.56165 7.54093 4.96798 7.1346C5.3743 6.72827 5.9254 6.5 6.50004 6.5H17.3334C19.6319 6.5 21.8363 7.41309 23.4616 9.03841C25.0869 10.6637 26 12.8681 26 15.1667C26 12.8681 26.9131 10.6637 28.5384 9.03841C30.1638 7.41309 32.3682 6.5 34.6667 6.5H45.5C46.0747 6.5 46.6258 6.72827 47.0321 7.1346C47.4384 7.54093 47.6667 8.09203 47.6667 8.66667V36.8333C47.6667 37.408 47.4384 37.9591 47.0321 38.3654C46.6258 38.7717 46.0747 39 45.5 39H32.5C30.7761 39 29.1228 39.6848 27.9038 40.9038C26.6849 42.1228 26 43.7761 26 45.5C26 43.7761 25.3152 42.1228 24.0962 40.9038C22.8772 39.6848 21.2239 39 19.5 39H6.50004Z" stroke="#CF3034" stroke-width="2.4375" stroke-linecap="round" stroke-linejoin="round"/>
</svg>
