<svg width="50" height="50" viewBox="0 0 50 50" fill="none" xmlns="http://www.w3.org/2000/svg">
<path d="M22.9167 16.6667H10.4167C8.11548 16.6667 6.25 18.5322 6.25 20.8334V41.6667C6.25 43.9679 8.11548 45.8334 10.4167 45.8334H22.9167C25.2179 45.8334 27.0833 43.9679 27.0833 41.6667V20.8334C27.0833 18.5322 25.2179 16.6667 22.9167 16.6667Z" stroke="#CF3034" stroke-width="2.5" stroke-linecap="round" stroke-linejoin="round"/>
<path d="M10.4166 8.33342C10.4166 7.22835 10.8556 6.16854 11.637 5.38714C12.4184 4.60573 13.4782 4.16675 14.5833 4.16675H39.5833C40.6884 4.16675 41.7482 4.60573 42.5296 5.38714C43.311 6.16854 43.75 7.22835 43.75 8.33342V41.6668C43.75 42.7718 43.311 43.8316 42.5296 44.613C41.7482 45.3944 40.6884 45.8334 39.5833 45.8334H34.5833" stroke="#CF3034" stroke-width="2.5" stroke-linecap="round" stroke-linejoin="round"/>
<path d="M16.6666 37.5005H16.6866" stroke="#CF3034" stroke-width="4.44444" stroke-linecap="round" stroke-linejoin="round"/>
</svg>
