<svg width="64" height="64" viewBox="0 0 64 64" fill="none" xmlns="http://www.w3.org/2000/svg">
<path d="M42.83 0.5H21.17C19.5787 0.5 18.0526 1.13214 16.9273 2.25736C15.8021 3.38258 15.17 4.9087 15.17 6.5V25.66C15.17 27.2513 15.8021 28.7774 16.9273 29.9026C18.0526 31.0279 19.5787 31.66 21.17 31.66H23.4L31.24 40.89C31.3721 41.0444 31.5482 41.1548 31.7447 41.2067C31.9412 41.2585 32.1489 41.2492 32.34 41.18C32.5339 41.1111 32.7016 40.9837 32.8199 40.8152C32.9381 40.6468 33.0011 40.4458 33 40.24V31.66H42.83C44.4213 31.66 45.9474 31.0279 47.0726 29.9026C48.1978 28.7774 48.83 27.2513 48.83 25.66V6.5C48.83 4.9087 48.1978 3.38258 47.0726 2.25736C45.9474 1.13214 44.4213 0.5 42.83 0.5ZM46.83 25.66C46.83 26.7209 46.4086 27.7383 45.6584 28.4884C44.9083 29.2386 43.8909 29.66 42.83 29.66H32C31.7348 29.66 31.4804 29.7654 31.2929 29.9529C31.1053 30.1404 31 30.3948 31 30.66V37.52L24.62 30.01C24.5256 29.9008 24.409 29.8131 24.2779 29.7527C24.1468 29.6923 24.0043 29.6607 23.86 29.66H21.17C20.1091 29.66 19.0917 29.2386 18.3416 28.4884C17.5914 27.7383 17.17 26.7209 17.17 25.66V6.5C17.17 5.43913 17.5914 4.42172 18.3416 3.67157C19.0917 2.92143 20.1091 2.5 21.17 2.5H42.83C43.8909 2.5 44.9083 2.92143 45.6584 3.67157C46.4086 4.42172 46.83 5.43913 46.83 6.5V25.66Z" fill="#CF3034"/>
<path d="M44.66 7.75C44.66 8.01522 44.5546 8.26957 44.3671 8.45711C44.1795 8.64464 43.9252 8.75 43.66 8.75H20.34C20.0747 8.75 19.8204 8.64464 19.6329 8.45711C19.4453 8.26957 19.34 8.01522 19.34 7.75C19.34 7.48478 19.4453 7.23043 19.6329 7.04289C19.8204 6.85536 20.0747 6.75 20.34 6.75H43.66C43.9252 6.75 44.1795 6.85536 44.3671 7.04289C44.5546 7.23043 44.66 7.48478 44.66 7.75Z" fill="#CF3034"/>
<path d="M44.66 11.9202C44.66 12.1854 44.5546 12.4398 44.3671 12.6273C44.1795 12.8149 43.9252 12.9202 43.66 12.9202H20.34C20.0747 12.9202 19.8204 12.8149 19.6329 12.6273C19.4453 12.4398 19.34 12.1854 19.34 11.9202C19.34 11.655 19.4453 11.4006 19.6329 11.2131C19.8204 11.0256 20.0747 10.9202 20.34 10.9202H43.66C43.7917 10.9189 43.9223 10.9438 44.0442 10.9936C44.1662 11.0434 44.2769 11.117 44.3701 11.2101C44.4632 11.3033 44.5368 11.414 44.5866 11.536C44.6364 11.6579 44.6613 11.7885 44.66 11.9202Z" fill="#CF3034"/>
<path d="M44.66 16.0803C44.66 16.3455 44.5546 16.5999 44.3671 16.7874C44.1795 16.975 43.9252 17.0803 43.66 17.0803H20.34C20.0747 17.0803 19.8204 16.975 19.6329 16.7874C19.4453 16.5999 19.34 16.3455 19.34 16.0803C19.34 15.8151 19.4453 15.5608 19.6329 15.3732C19.8204 15.1857 20.0747 15.0803 20.34 15.0803H43.66C43.9252 15.0803 44.1795 15.1857 44.3671 15.3732C44.5546 15.5608 44.66 15.8151 44.66 16.0803Z" fill="#CF3034"/>
<path d="M44.66 20.2501C44.66 20.5153 44.5546 20.7696 44.3671 20.9572C44.1796 21.1447 43.9252 21.2501 43.66 21.2501H28.67C28.4048 21.2501 28.1504 21.1447 27.9629 20.9572C27.7753 20.7696 27.67 20.5153 27.67 20.2501C27.67 19.9848 27.7753 19.7305 27.9629 19.5429C28.1504 19.3554 28.4048 19.2501 28.67 19.2501H43.66C43.7917 19.2487 43.9223 19.2737 44.0442 19.3234C44.1662 19.3732 44.2769 19.4468 44.3701 19.54C44.4632 19.6331 44.5368 19.7439 44.5866 19.8658C44.6364 19.9877 44.6613 20.1184 44.66 20.2501Z" fill="#CF3034"/>
<path d="M44.66 24.4099C44.66 24.6751 44.5546 24.9295 44.3671 25.117C44.1796 25.3046 43.9252 25.4099 43.66 25.4099H28.67C28.4048 25.4099 28.1504 25.3046 27.9629 25.117C27.7753 24.9295 27.67 24.6751 27.67 24.4099C27.67 24.1447 27.7753 23.8903 27.9629 23.7028C28.1504 23.5153 28.4048 23.4099 28.67 23.4099H43.66C43.9252 23.4099 44.1796 23.5153 44.3671 23.7028C44.5546 23.8903 44.66 24.1447 44.66 24.4099Z" fill="#CF3034"/>
<path d="M18.65 43.5499C18.5835 43.3502 18.4561 43.1763 18.2857 43.0525C18.1154 42.9288 17.9106 42.8615 17.7 42.8599H13.57L12.29 38.9299C12.2243 38.7299 12.097 38.5557 11.9264 38.4322C11.7558 38.3087 11.5506 38.2422 11.34 38.2422C11.1294 38.2422 10.9242 38.3087 10.7536 38.4322C10.583 38.5557 10.4558 38.7299 10.39 38.9299L9.11002 42.8599H4.98002C4.76839 42.8592 4.56198 42.9256 4.39049 43.0496C4.21899 43.1736 4.09126 43.3488 4.02568 43.55C3.96009 43.7512 3.96003 43.9681 4.0255 44.1693C4.09097 44.3705 4.2186 44.5458 4.39002 44.6699L7.73002 47.0999L6.46002 51.0199C6.41109 51.17 6.39838 51.3295 6.42292 51.4854C6.44746 51.6413 6.50856 51.7892 6.60122 51.917C6.69388 52.0448 6.81547 52.1488 6.95604 52.2206C7.09662 52.2923 7.25218 52.3298 7.41002 52.3299C7.62174 52.33 7.82813 52.2635 8.00002 52.1399L11.34 49.7099L14.68 52.1399C14.8503 52.2631 15.0551 52.3294 15.2652 52.3296C15.4754 52.3298 15.6802 52.2637 15.8507 52.1408C16.0212 52.018 16.1486 51.8445 16.2149 51.6451C16.2812 51.4457 16.283 51.2304 16.22 51.0299L14.94 47.0999L18.29 44.6699C18.4593 44.5441 18.5849 44.3684 18.6495 44.1676C18.714 43.9668 18.7142 43.7509 18.65 43.5499ZM12.82 47.0199L13.37 48.7199L11.93 47.6699C11.7594 47.5433 11.5525 47.4749 11.34 47.4749C11.1275 47.4749 10.9207 47.5433 10.75 47.6699L9.31002 48.7199L9.86002 47.0199C9.925 46.8206 9.92517 46.6058 9.86049 46.4064C9.79582 46.207 9.66962 46.0332 9.50002 45.9099L8.06002 44.8599H9.84002C10.0506 44.8584 10.2554 44.7911 10.4257 44.6674C10.5961 44.5436 10.7235 44.3697 10.79 44.1699L11.34 42.4699L11.89 44.1699C11.9554 44.3704 12.0825 44.5451 12.2531 44.669C12.4237 44.793 12.6291 44.8598 12.84 44.8599H14.62L13.18 45.9099C13.0086 46.0316 12.881 46.2053 12.8161 46.4053C12.7512 46.6053 12.7526 46.8208 12.82 47.0199Z" fill="#CF3034"/>
<path d="M39.31 48.7101C39.2446 48.5096 39.1175 48.3349 38.9469 48.211C38.7763 48.0871 38.5709 48.0203 38.36 48.0201H34.23L32.95 44.0901C32.8842 43.89 32.757 43.7158 32.5864 43.5923C32.4158 43.4688 32.2106 43.4023 32 43.4023C31.7894 43.4023 31.5842 43.4688 31.4136 43.5923C31.243 43.7158 31.1158 43.89 31.05 44.0901L29.77 48.0201H25.64C25.4284 48.0193 25.222 48.0857 25.0505 48.2097C24.879 48.3337 24.7512 48.509 24.6857 48.7102C24.6201 48.9114 24.62 49.1282 24.6855 49.3295C24.7509 49.5307 24.8786 49.706 25.05 49.8301L28.4 52.2601L27.12 56.1901C27.0558 56.391 27.056 56.607 27.1205 56.8078C27.1851 57.0086 27.3108 57.1842 27.48 57.3101C27.6525 57.4321 27.8587 57.4976 28.07 57.4976C28.2813 57.4976 28.4874 57.4321 28.66 57.3101L32 54.8801L35.34 57.3101C35.5119 57.4336 35.7183 57.5001 35.93 57.5001C36.1417 57.5001 36.3481 57.4336 36.52 57.3101C36.6892 57.1842 36.8149 57.0086 36.8795 56.8078C36.944 56.607 36.9442 56.391 36.88 56.1901L35.6 52.2601L38.95 49.8301C39.1207 49.7054 39.2474 49.5299 39.3121 49.3286C39.3768 49.1274 39.3761 48.9109 39.31 48.7101ZM33.48 52.1901L34.03 53.8801L32.59 52.8301C32.4181 52.7065 32.2117 52.6401 32 52.6401C31.7883 52.6401 31.5819 52.7065 31.41 52.8301L29.97 53.8801L30.52 52.1901C30.5873 51.9894 30.5887 51.7725 30.5239 51.571C30.4592 51.3695 30.3316 51.194 30.16 51.0701L28.72 50.0201H30.5C30.7109 50.0199 30.9163 49.9531 31.0869 49.8292C31.2575 49.7053 31.3846 49.5306 31.45 49.3301L32 47.6401L32.55 49.3301C32.6154 49.5306 32.7424 49.7053 32.9131 49.8292C33.0837 49.9531 33.2891 50.0199 33.5 50.0201H35.28L33.84 51.0701C33.6684 51.194 33.5408 51.3695 33.4761 51.571C33.4113 51.7725 33.4127 51.9894 33.48 52.1901Z" fill="#CF3034"/>
<path d="M59.97 43.5499C59.9059 43.3487 59.7791 43.1732 59.6082 43.0491C59.4373 42.925 59.2312 42.8587 59.02 42.8599H54.89L53.61 38.9299C53.5443 38.7299 53.417 38.5557 53.2464 38.4322C53.0759 38.3087 52.8706 38.2422 52.66 38.2422C52.4494 38.2422 52.2442 38.3087 52.0736 38.4322C51.903 38.5557 51.7758 38.7299 51.71 38.9299L50.43 42.8599H46.3C46.0884 42.8592 45.882 42.9256 45.7105 43.0496C45.539 43.1736 45.4113 43.3488 45.3457 43.55C45.2801 43.7512 45.28 43.9681 45.3455 44.1693C45.411 44.3705 45.5386 44.5458 45.71 44.6699L49.06 47.0999L47.78 51.0299C47.7171 51.2304 47.7188 51.4457 47.7851 51.6451C47.8514 51.8445 47.9789 52.018 48.1494 52.1408C48.3198 52.2637 48.5247 52.3298 48.7348 52.3296C48.945 52.3294 49.1497 52.2631 49.32 52.1399L52.66 49.7099L56 52.1399C56.1719 52.2635 56.3783 52.33 56.59 52.3299C56.8022 52.3331 57.0095 52.2663 57.18 52.1399C57.3523 52.0166 57.4803 51.8411 57.5451 51.6394C57.61 51.4377 57.6082 51.2205 57.54 51.0199L56.27 47.0999L59.61 44.6699C59.7807 44.5453 59.9075 44.3697 59.9722 44.1685C60.0368 43.9673 60.0361 43.7507 59.97 43.5499ZM54.14 47.0199L54.69 48.7199L53.25 47.6699C53.0788 47.545 52.872 47.4783 52.66 47.4799C52.4483 47.4799 52.2419 47.5463 52.07 47.6699L50.63 48.7199L51.18 47.0199C51.2474 46.8208 51.2488 46.6053 51.1839 46.4053C51.1191 46.2053 50.9915 46.0316 50.82 45.9099L49.38 44.8599H51.16C51.3709 44.8598 51.5763 44.793 51.747 44.669C51.9176 44.5451 52.0447 44.3704 52.11 44.1699L52.66 42.4699L53.21 44.1699C53.2766 44.3697 53.404 44.5436 53.5743 44.6674C53.7447 44.7911 53.9495 44.8584 54.16 44.8599H55.94L54.5 45.9099C54.3304 46.0332 54.2042 46.207 54.1396 46.4064C54.0749 46.6058 54.075 46.8206 54.14 47.0199Z" fill="#CF3034"/>
</svg>
